HIERARCHY
ROOT hip
{
	OFFSET 0.000000 0.000000 0.000000 
	CHANNELS 6 Xposition Yposition Zposition Xrotation Zrotation Yrotation
	JOINT abdomen
	{
		OFFSET 0.000000 3.402643 0.000000 
		CHANNELS 3 Xrotation Zrotation Yrotation
		JOINT chest
		{
			OFFSET 0.000000 8.438565 -0.680529 
			CHANNELS 3 Xrotation Zrotation Yrotation
			JOINT neck
			{
				OFFSET 0.000000 10.207942 -0.272212 
				CHANNELS 3 Xrotation Zrotation Yrotation
				JOINT head
				{
					OFFSET 0.000000 3.130431 0.000000 
					CHANNELS 3 Xrotation Zrotation Yrotation
					End Site
					{
						OFFSET 0.000000 3.130435 0.000000 
					}
				}
			}
			JOINT lCollar
			{
				OFFSET 3.470700 6.669187 -0.816635 
				CHANNELS 3 Yrotation Zrotation Xrotation
				JOINT lShldr
				{
					OFFSET 3.198488 0.000000 0.000000 
					CHANNELS 3 Zrotation Yrotation Xrotation
					JOINT lForeArm
					{
						OFFSET 10.139888 0.000000 0.000000 
						CHANNELS 3 Yrotation Zrotation Xrotation
						JOINT lHand
						{
							OFFSET 8.370511 0.000000 0.000000 
							CHANNELS 3 Zrotation Yrotation Xrotation
							End Site
							{
								OFFSET 4.083176 0.000000 0.000000 
							}
						}
					}
				}
			}
			JOINT rCollar
			{
				OFFSET -3.470700 6.669187 -0.816635 
				CHANNELS 3 Yrotation Zrotation Xrotation
				JOINT rShldr
				{
					OFFSET -3.198488 0.000000 0.000000 
					CHANNELS 3 Zrotation Yrotation Xrotation
					JOINT rForeArm
					{
						OFFSET -10.139888 0.000000 0.000000 
						CHANNELS 3 Yrotation Zrotation Xrotation
						JOINT rHand
						{
							OFFSET -8.370511 0.000000 0.000000 
							CHANNELS 3 Zrotation Yrotation Xrotation
							End Site
							{
								OFFSET -4.083176 0.000000 0.000000 
							}
						}
					}
				}
			}
		}
	}
	JOINT lThigh
	{
		OFFSET 5.308129 -1.633274 1.361059 
		CHANNELS 3 Xrotation Zrotation Yrotation
		JOINT lShin
		{
			OFFSET -2.041588 -20.007561 0.000000 
			CHANNELS 3 Xrotation Zrotation Yrotation
			JOINT lFoot
			{
				OFFSET 0.000000 -19.190928 -1.224953 
				CHANNELS 3 Xrotation Yrotation Zrotation
				End Site
				{
					OFFSET 0.000000 -2.449906 4.627600 
				}
			}
		}
	}
	JOINT rThigh
	{
		OFFSET -5.308129 -1.633274 1.361059 
		CHANNELS 3 Xrotation Zrotation Yrotation
		JOINT rShin
		{
			OFFSET 2.041588 -20.007561 0.000000 
			CHANNELS 3 Xrotation Zrotation Yrotation
			JOINT rFoot
			{
				OFFSET 0.000000 -19.190928 -1.224953 
				CHANNELS 3 Xrotation Yrotation Zrotation
				End Site
				{
					OFFSET 0.000000 -2.449906 4.627600 
				}
			}
		}
	}
}
MOTION
Frames: 10
Frame Time: 0.033333
-17.020226 48.822239 -6.627904 3.066984 -1.111687 -30.469898 0.000000 0.000000 0.000000 1.767588 -0.195220 1.575974 5.191320 1.094068 10.453181 2.783200 0.058292 8.548747 -7.943798 -4.539430 1.822135 -55.902283 -10.057535 -10.376666 -56.709652 -2.648986 19.071453 -1.308925 11.481215 -3.698333 16.480631 10.927723 0.793426 53.445152 -17.147003 21.308268 82.569466 -7.975485 13.780830 1.310341 -11.031105 -3.702488 -6.531637 8.864362 5.667448 12.242539 -3.653293 25.294132 -5.503032 0.227518 -5.081525 3.231598 -13.738255 -9.539769 5.387276 4.056191 -16.328711 4.331508 0.545073 14.588113 
-17.475477 48.768753 -6.759132 2.812582 -0.438924 -31.300934 0.000000 0.000000 0.000000 1.826214 -0.390427 1.462095 4.932182 0.895178 10.665228 2.987969 0.602563 8.710289 -7.863414 -5.351820 1.805972 -56.651173 -6.658538 -10.310715 -60.216915 -2.455079 19.280777 -2.400240 12.474201 -3.808999 16.343872 10.741344 0.901513 53.795982 -16.852812 22.456291 86.219070 -8.952181 14.997978 2.193727 -12.085042 -3.808489 -6.316985 8.766986 5.678172 11.958858 -3.642815 26.350317 -5.102780 0.251762 -5.712955 4.165905 -13.917473 -9.154993 2.059264 3.428075 -15.870247 4.349124 0.535105 14.213954 
-18.015419 48.687080 -6.896630 2.480541 0.439041 -32.060986 0.000000 0.000000 0.000000 1.660322 -0.810207 1.353333 4.970548 0.792716 10.799484 2.655941 0.582784 9.128744 -7.938446 -5.845343 1.590140 -58.760342 -2.817714 -11.588148 -62.889370 -1.936451 22.881266 -6.252903 11.517135 -4.054532 16.186686 10.296868 0.864049 54.871792 -16.950665 23.148325 89.695251 -9.834466 18.671972 4.270095 -14.158338 -4.060197 -6.187301 8.479638 5.528032 11.692046 -3.538956 27.511322 -4.591906 0.266605 -6.461301 4.138628 -14.118251 -8.936615 1.903650 3.023128 -16.556417 1.678477 0.203269 14.003734 
-18.598158 48.618881 -7.119749 2.148925 1.219845 -33.293880 0.000000 0.000000 0.000000 1.553098 -1.239779 1.352904 5.201673 0.423108 11.375239 1.755290 1.551358 9.501281 -8.306311 -6.229061 1.411178 -61.713520 1.989036 -14.660712 -65.675560 -1.258958 28.505020 -10.138296 10.351541 -4.214200 16.075735 9.840544 0.889656 56.373009 -16.597006 24.261463 92.047348 -10.585344 21.052393 4.603004 -14.756100 -4.136604 -5.730403 8.453130 5.579563 11.010005 -3.523172 28.762522 -3.895971 0.247211 -7.217508 4.030663 -14.047945 -8.665375 1.786251 2.872093 -16.906336 -0.798556 -0.103800 13.325473 
-19.230215 48.559982 -7.402391 1.660964 1.786359 -34.488945 0.000000 0.000000 0.000000 1.670535 -1.552075 1.321679 5.495523 0.326551 11.631728 1.375197 1.259445 9.977034 -8.026341 -6.486973 1.507034 -65.205009 6.044791 -17.259020 -67.232079 -0.880461 31.466005 -11.238665 10.015491 -4.246262 15.994648 9.655582 1.068098 57.826042 -16.247900 24.730394 93.807472 -11.023559 21.972246 5.069098 -14.525024 -4.169417 -4.851070 8.422399 5.622715 10.015319 -3.299714 30.032854 -3.018382 0.214748 -7.981209 3.845148 -13.685000 -8.349644 1.445768 2.984083 -19.534582 -1.905854 -0.206694 12.178253 
-19.888189 48.520344 -7.741540 1.153125 2.108948 -35.484570 0.000000 0.000000 0.000000 1.983244 -1.649403 1.270760 5.730738 0.232212 12.007102 1.336098 1.269023 10.365566 -7.830407 -6.940390 1.777447 -68.553108 9.575317 -19.624403 -68.154144 -0.648452 31.745735 -10.875419 10.853924 -4.312722 16.016998 9.851553 1.341297 59.414074 -16.090324 24.695570 94.933701 -11.151362 19.991241 3.259223 -12.835913 -3.907577 -3.601564 8.607614 5.851913 8.540607 -3.101422 30.919559 -1.901417 0.145644 -8.600871 3.326660 -13.292058 -7.847544 1.982183 3.073797 -21.187977 -1.816811 -0.180187 11.198877 
-20.507515 48.461445 -8.103212 0.967508 2.196953 -36.075844 0.000000 0.000000 0.000000 2.285761 -1.317311 1.138620 5.911279 0.320101 12.313230 1.248186 1.268773 10.676119 -7.757140 -6.868911 2.075126 -72.170876 12.363042 -22.147343 -68.528999 -0.368658 33.827103 -12.288113 12.039396 -4.556833 15.864006 10.238815 1.507058 60.739494 -16.249359 24.180429 96.766960 -11.357734 20.778656 3.960589 -13.148536 -3.983962 -3.055844 9.156927 6.163088 7.971815 -2.844216 31.227633 -1.153222 0.115640 -9.335983 1.395403 -13.013876 -7.026458 6.054308 3.074559 -20.134756 -4.327317 -0.437718 11.265317 
-21.082743 48.370087 -8.519881 0.771933 1.952948 -36.604229 0.000000 0.000000 0.000000 2.841982 -0.653492 1.178388 6.216242 0.509219 12.653917 1.082882 0.977845 10.837730 -7.700852 -6.591653 2.637134 -74.784653 14.388992 -22.943195 -68.310738 -0.286635 34.796856 -13.385251 13.534467 -4.836233 15.713750 10.700341 1.881600 61.971630 -16.256216 23.521246 98.497375 -11.418734 20.508604 4.084788 -14.109984 -4.052200 -2.879537 9.904691 6.442291 8.404795 -2.401729 31.199997 -0.727852 0.068979 -10.334940 -0.557149 -12.278358 -6.029931 10.132082 2.787936 -20.829943 -6.325155 -0.655431 11.503974 
-21.630180 48.268410 -8.923332 0.400515 1.425746 -37.021042 0.000000 0.000000 0.000000 3.603521 0.097463 1.314748 6.729912 0.925024 13.090036 0.956722 0.512976 11.103008 -7.551043 -5.779233 3.438476 -76.584923 15.677063 -21.910164 -67.694443 -0.385003 37.076008 -14.712595 14.082599 -5.045315 15.899581 11.661369 2.346993 62.512089 -16.462431 22.454855 100.243347 -11.394065 19.711874 4.635151 -14.813012 -4.134780 -2.684763 10.793674 6.977339 9.214697 -2.040291 31.763153 -0.296280 0.038846 -11.271798 -1.923480 -11.341700 -5.260353 13.494925 2.655405 -22.051323 -7.818315 -0.800493 11.519404 
-22.161776 48.222980 -9.305519 -0.146498 0.791013 -36.916084 0.000000 0.000000 0.000000 4.551280 0.846931 1.161302 7.271041 1.342657 13.337129 0.937442 0.222602 11.415351 -7.620275 -5.058365 4.389299 -77.103371 16.383751 -19.490389 -67.606453 -0.614501 41.504772 -17.631031 13.191213 -5.166370 15.761622 12.513243 2.987939 62.562130 -16.277306 21.915730 101.560326 -11.409047 19.085676 5.061227 -15.532932 -4.228096 -1.435263 11.310846 7.355008 8.265468 -1.216574 31.491018 0.758373 -0.066612 -11.948302 -1.913558 -10.499276 -4.972270 15.135092 2.811585 -22.278502 -8.966520 -0.877593 11.089890 
